<?xml version="1.0" encoding="UTF-8" standalone="no"?>
<svg
   version="1.1"
   width="512"
   height="512"
   id="svg1"
   xmlns="http://www.w3.org/2000/svg"
   xmlns:svg="http://www.w3.org/2000/svg">
  <defs
     id="defs1" />
  <path
     id="path11"
     d="m 419.15039,323.24219 c -7.39834,0.0223 -18.24313,0.0371 -33.53516,0.043 0.005,1.30988 -0.0104,2.61982 0.006,3.92968 0.0598,3.8256 -0.0447,7.35373 -0.13476,10.91993 v 162.70117 c 0.41293,1.6045 1.10656,3.13548 2.30273,4.86328 3.41449,3.78359 5.97636,6.30881 11.22656,6.8789 6.56411,0.1198 10.47558,-0.21541 15.64844,-4.3789 5.06419,-6.103 5.77962,-12.99663 5.92969,-20.73242 0.007,-1.1015 0.0135,-2.17114 0.0195,-3.24024 0.0557,-3.47779 0.10888,-6.95549 0.14258,-10.43359 0.0228,-2.4121 0.0509,-4.82423 0.084,-7.23633 0.096,-6.47309 0.17994,-12.94643 0.24414,-19.41992 0.006,-0.6377 0.0116,-1.2561 0.0176,-1.875 2.2435,4.46659 4.48334,8.93304 6.66211,13.43164 3.47088,7.28789 6.97632,14.55971 10.51172,21.81641 0.6095,1.25059 1.21787,2.50085 1.82617,3.75195 1.6102,3.3409 3.2245,6.6788 4.875,10 0.51,1.0202 1.0049,2.0097 1.5,3 1.2869,2.6899 2.60379,5.31409 4.08789,7.90039 3.2206,4.40079 7.29356,6.71855 12.61914,7.62305 0.9284,-0.05 1.82947,-0.099 2.73047,-0.14844 2.7695,-0.1016 2.7695,-0.1016 5.1875,-0.375 5.2839,-1.7613 8.64046,-5.01009 11.28125,-9.92969 2.0891,-6.01749 1.10693,-12.18903 -1.59765,-17.79883 -0.864,-1.7098 -1.7265,-3.41986 -2.58789,-5.13086 -0.32479,-0.6452 -0.63988,-1.27223 -0.95508,-1.89843 -4.7994,-9.50809 -9.59983,-19.01399 -14.16211,-28.63868 -5.9284,-12.55368 -12.12566,-24.96614 -18.37696,-37.36132 -0.75968,-1.5038 -1.51513,-3.00913 -2.26953,-4.51563 -2.30918,-4.75809 -4.62992,-9.48305 -7.23242,-14.08984 -11.86502,-20.72928 -16.4714,-37.81463 -16.08398,-61.65821 0.046,-2.66662 0.0309,-5.33232 0.0332,-7.99804 z" />
</svg>
