<?xml version="1.0" encoding="UTF-8" standalone="no"?>
<svg
   version="1.1"
   width="512"
   height="512"
   id="svg1"
   xmlns="http://www.w3.org/2000/svg"
   xmlns:svg="http://www.w3.org/2000/svg">
  <defs
     id="defs1" />
  <path
     id="path8-7-8"
     d="m 124.4363,200.8804 c 0.003,1.0014 0.003,1.0013 0.005,1.9828 h 9.3e-4 c -0.002,3.7529 0.86319,5.562 3.34143,8.0055 2.12979,1.3843 4.07039,1.8992 6.4793,1.3764 3.24496,-1.0966 4.20719,-2.6127 5.97134,-6.203 v -20.37883 h 0.18283 v -9.65524 h -0.18283 l 0.18283,-18.28606 v -54.29892 c -0.0627,0.0625 -0.12082,0.12373 -0.18374,0.18644 V 38.182584 h 0.18374 v -18.70697 c -4.93525,-0.0245 -9.8706,-0.0247 -14.80585,-0.0544 -0.35898,-0.002 -0.70715,-0.005 -1.05557,-0.006 -0.0206,23.18308 -0.0373,46.36647 -0.0468,69.54956 -0.001,2.79372 -0.002,5.58681 -0.004,8.38052 -4.6e-4,0.85221 -4.6e-4,0.85208 -9.2e-4,1.68741 -0.004,9.037246 -0.0105,18.074516 -0.0189,27.111756 -0.009,9.30228 -0.0153,18.60447 -0.0171,27.90676 -9.2e-4,5.73375 -0.003,11.4682 -0.0108,17.20197 -0.005,3.96577 -0.008,7.93108 -0.007,11.89678 9.3e-4,2.28842 0.002,4.57752 -0.002,6.86593 -0.005,2.12303 -0.008,4.24537 -0.006,6.36839 9.2e-4,0.77162 0.001,1.54316 0.002,2.31478 -0.003,0.72723 -0.005,1.45463 -0.008,2.18183 z"
     style="stroke-width:0.497293" />
</svg>
