<?xml version="1.0" encoding="UTF-8" standalone="no"?>
<svg
   version="1.1"
   width="512"
   height="512"
   id="svg1"
   xmlns="http://www.w3.org/2000/svg"
   xmlns:svg="http://www.w3.org/2000/svg">
  <defs
     id="defs1" />
  <path
     id="path16"
     d="M 385.48633,0.234375 V 290.16797 c 0.0737,7.97039 0.12732,15.93926 0.11523,23.91015 -0.009,3.06908 0.002,6.13806 0.0137,9.20704 15.29203,-0.006 26.13682,-0.0207 33.53516,-0.043 10e-4,-1.68211 0.03,-3.36401 0.0215,-5.04688 -0.0413,-7.57109 -0.0387,-15.13994 0.0254,-22.71093 0.0999,-10.99579 0.1379,-21.99004 0.1289,-32.98633 -0.0171,-17.86259 0.0228,-35.72366 0.12305,-53.58594 0.0987,-17.36946 0.17616,-34.73965 0.19726,-52.10938 0.002,-1.10956 0.003,-2.18673 0.004,-3.26367 0.006,-5.41017 0.0126,-10.82027 0.0176,-16.23047 0.0408,-44.919567 0.18852,-89.838833 0.42187,-134.7578088 0.004,-0.7784592 0.008,-1.5335032 0.0117,-2.28906245 -11.53835,-0.0119 -23.07688,-0.0169438 -34.61523,-0.0273438 z" />
</svg>
